<mxfile host="app.diagrams.net" agent="Mozilla/5.0 (Windows NT 10.0; Win64; x64; rv:109.0) Gecko/20100101 Firefox/117.0" version="27.2.0">
  <diagram name="PÃ¡gina-1" id="iA5zlDapMS2VYP5x8y2V">
    <mxGraphModel dx="2982" dy="1168" grid="1" gridSize="10" guides="1" tooltips="1" connect="1" arrows="1" fold="1" page="1" pageScale="1" pageWidth="827" pageHeight="1169" math="0" shadow="0">
      <root>
        <mxCell id="0" />
        <mxCell id="1" parent="0" />
        <mxCell id="dpNasas59TxUKphN5B6h-7" value="" style="edgeStyle=entityRelationEdgeStyle;fontSize=12;html=1;endArrow=ERoneToMany;rounded=0;exitX=1;exitY=0.5;exitDx=0;exitDy=0;entryX=0;entryY=0.5;entryDx=0;entryDy=0;" parent="1" source="dpNasas59TxUKphN5B6h-16" target="dpNasas59TxUKphN5B6h-17" edge="1">
          <mxGeometry width="100" height="100" relative="1" as="geometry">
            <mxPoint x="-301.9999999999999" y="127" as="sourcePoint" />
            <mxPoint x="-242" y="127" as="targetPoint" />
          </mxGeometry>
        </mxCell>
        <mxCell id="dpNasas59TxUKphN5B6h-16" value="ALUNO" style="shape=ext;margin=3;double=1;whiteSpace=wrap;html=1;align=center;" parent="1" vertex="1">
          <mxGeometry x="-412" y="230" width="100" height="40" as="geometry" />
        </mxCell>
        <mxCell id="dpNasas59TxUKphN5B6h-17" value="REALIZA" style="shape=rhombus;double=1;perimeter=rhombusPerimeter;whiteSpace=wrap;html=1;align=center;" parent="1" vertex="1">
          <mxGeometry x="-252" y="220" width="120" height="60" as="geometry" />
        </mxCell>
        <mxCell id="dpNasas59TxUKphN5B6h-18" value="TRABALHO" style="shape=ext;margin=3;double=1;whiteSpace=wrap;html=1;align=center;" parent="1" vertex="1">
          <mxGeometry x="-62" y="230" width="100" height="40" as="geometry" />
        </mxCell>
        <mxCell id="dpNasas59TxUKphN5B6h-19" value="" style="edgeStyle=entityRelationEdgeStyle;fontSize=12;html=1;endArrow=ERoneToMany;rounded=0;entryX=1;entryY=0.5;entryDx=0;entryDy=0;exitX=0;exitY=0.5;exitDx=0;exitDy=0;" parent="1" source="dpNasas59TxUKphN5B6h-18" target="dpNasas59TxUKphN5B6h-17" edge="1">
          <mxGeometry width="100" height="100" relative="1" as="geometry">
            <mxPoint x="-180" y="400" as="sourcePoint" />
            <mxPoint x="-80" y="300" as="targetPoint" />
          </mxGeometry>
        </mxCell>
        <mxCell id="dpNasas59TxUKphN5B6h-21" value="DIRETOR" style="shape=ext;margin=3;double=1;whiteSpace=wrap;html=1;align=center;" parent="1" vertex="1">
          <mxGeometry x="-417" y="350" width="100" height="40" as="geometry" />
        </mxCell>
        <mxCell id="dpNasas59TxUKphN5B6h-22" value="DIRIGE" style="shape=rhombus;double=1;perimeter=rhombusPerimeter;whiteSpace=wrap;html=1;align=center;" parent="1" vertex="1">
          <mxGeometry x="-257" y="340" width="120" height="60" as="geometry" />
        </mxCell>
        <mxCell id="dpNasas59TxUKphN5B6h-23" value="DEPT" style="shape=ext;margin=3;double=1;whiteSpace=wrap;html=1;align=center;" parent="1" vertex="1">
          <mxGeometry x="-67" y="350" width="100" height="40" as="geometry" />
        </mxCell>
        <mxCell id="dpNasas59TxUKphN5B6h-26" value="AUTOR" style="shape=ext;margin=3;double=1;whiteSpace=wrap;html=1;align=center;" parent="1" vertex="1">
          <mxGeometry x="-412" y="470" width="100" height="40" as="geometry" />
        </mxCell>
        <mxCell id="dpNasas59TxUKphN5B6h-27" value="ESCREVE" style="shape=rhombus;double=1;perimeter=rhombusPerimeter;whiteSpace=wrap;html=1;align=center;" parent="1" vertex="1">
          <mxGeometry x="-252" y="460" width="120" height="60" as="geometry" />
        </mxCell>
        <mxCell id="dpNasas59TxUKphN5B6h-28" value="LIVROS" style="shape=ext;margin=3;double=1;whiteSpace=wrap;html=1;align=center;" parent="1" vertex="1">
          <mxGeometry x="-62" y="470" width="100" height="40" as="geometry" />
        </mxCell>
        <mxCell id="dpNasas59TxUKphN5B6h-37" value="" style="edgeStyle=entityRelationEdgeStyle;fontSize=12;html=1;endArrow=ERoneToMany;rounded=0;exitX=1;exitY=0.5;exitDx=0;exitDy=0;entryX=0;entryY=0.5;entryDx=0;entryDy=0;" parent="1" source="dpNasas59TxUKphN5B6h-26" target="dpNasas59TxUKphN5B6h-27" edge="1">
          <mxGeometry width="100" height="100" relative="1" as="geometry">
            <mxPoint x="-230" y="630" as="sourcePoint" />
            <mxPoint x="-130" y="530" as="targetPoint" />
          </mxGeometry>
        </mxCell>
        <mxCell id="ljGFw6Zh4O7i61NH9_oq-1" value="" style="edgeStyle=entityRelationEdgeStyle;fontSize=12;html=1;endArrow=ERoneToMany;rounded=0;entryX=1;entryY=0.5;entryDx=0;entryDy=0;exitX=0;exitY=0.5;exitDx=0;exitDy=0;" parent="1" source="dpNasas59TxUKphN5B6h-28" target="dpNasas59TxUKphN5B6h-27" edge="1">
          <mxGeometry width="100" height="100" relative="1" as="geometry">
            <mxPoint x="-140" y="640" as="sourcePoint" />
            <mxPoint x="-40" y="540" as="targetPoint" />
          </mxGeometry>
        </mxCell>
        <mxCell id="ljGFw6Zh4O7i61NH9_oq-2" value="EQUIPE" style="shape=ext;margin=3;double=1;whiteSpace=wrap;html=1;align=center;" parent="1" vertex="1">
          <mxGeometry x="-417" y="590" width="100" height="40" as="geometry" />
        </mxCell>
        <mxCell id="ljGFw6Zh4O7i61NH9_oq-3" value="TEM" style="shape=rhombus;double=1;perimeter=rhombusPerimeter;whiteSpace=wrap;html=1;align=center;" parent="1" vertex="1">
          <mxGeometry x="-257" y="580" width="120" height="60" as="geometry" />
        </mxCell>
        <mxCell id="ljGFw6Zh4O7i61NH9_oq-4" value="JOGADORES" style="shape=ext;margin=3;double=1;whiteSpace=wrap;html=1;align=center;" parent="1" vertex="1">
          <mxGeometry x="-67" y="590" width="100" height="40" as="geometry" />
        </mxCell>
        <mxCell id="ljGFw6Zh4O7i61NH9_oq-5" value="" style="edgeStyle=entityRelationEdgeStyle;fontSize=12;html=1;endArrow=ERoneToMany;rounded=0;exitX=1;exitY=0.5;exitDx=0;exitDy=0;entryX=0;entryY=0.5;entryDx=0;entryDy=0;" parent="1" source="ljGFw6Zh4O7i61NH9_oq-2" target="ljGFw6Zh4O7i61NH9_oq-3" edge="1">
          <mxGeometry width="100" height="100" relative="1" as="geometry">
            <mxPoint x="-235" y="750" as="sourcePoint" />
            <mxPoint x="-135" y="650" as="targetPoint" />
          </mxGeometry>
        </mxCell>
        <mxCell id="ljGFw6Zh4O7i61NH9_oq-9" value="CLIENTES" style="shape=ext;margin=3;double=1;whiteSpace=wrap;html=1;align=center;" parent="1" vertex="1">
          <mxGeometry x="-422" y="712" width="100" height="40" as="geometry" />
        </mxCell>
        <mxCell id="ljGFw6Zh4O7i61NH9_oq-10" value="FAZEM" style="shape=rhombus;double=1;perimeter=rhombusPerimeter;whiteSpace=wrap;html=1;align=center;" parent="1" vertex="1">
          <mxGeometry x="-262" y="702" width="120" height="60" as="geometry" />
        </mxCell>
        <mxCell id="ljGFw6Zh4O7i61NH9_oq-11" value="ENCOMENDAS" style="shape=ext;margin=3;double=1;whiteSpace=wrap;html=1;align=center;" parent="1" vertex="1">
          <mxGeometry x="-72" y="712" width="100" height="40" as="geometry" />
        </mxCell>
        <mxCell id="ljGFw6Zh4O7i61NH9_oq-12" value="" style="edgeStyle=entityRelationEdgeStyle;fontSize=12;html=1;endArrow=ERoneToMany;rounded=0;exitX=1;exitY=0.5;exitDx=0;exitDy=0;entryX=0;entryY=0.5;entryDx=0;entryDy=0;" parent="1" source="ljGFw6Zh4O7i61NH9_oq-9" target="ljGFw6Zh4O7i61NH9_oq-10" edge="1">
          <mxGeometry width="100" height="100" relative="1" as="geometry">
            <mxPoint x="-240" y="872" as="sourcePoint" />
            <mxPoint x="-140" y="772" as="targetPoint" />
          </mxGeometry>
        </mxCell>
        <mxCell id="ljGFw6Zh4O7i61NH9_oq-13" value="" style="edgeStyle=entityRelationEdgeStyle;fontSize=12;html=1;endArrow=ERmandOne;startArrow=ERmandOne;rounded=0;entryX=0;entryY=0.5;entryDx=0;entryDy=0;exitX=1;exitY=0.5;exitDx=0;exitDy=0;" parent="1" source="ljGFw6Zh4O7i61NH9_oq-10" target="ljGFw6Zh4O7i61NH9_oq-11" edge="1">
          <mxGeometry width="100" height="100" relative="1" as="geometry">
            <mxPoint x="-175" y="892" as="sourcePoint" />
            <mxPoint x="-75" y="792" as="targetPoint" />
          </mxGeometry>
        </mxCell>
        <mxCell id="ljGFw6Zh4O7i61NH9_oq-14" value="ESCOLA" style="shape=ext;margin=3;double=1;whiteSpace=wrap;html=1;align=center;" parent="1" vertex="1">
          <mxGeometry x="-490" y="850" width="100" height="40" as="geometry" />
        </mxCell>
        <mxCell id="ljGFw6Zh4O7i61NH9_oq-15" value="TURMAS" style="shape=ext;margin=3;double=1;whiteSpace=wrap;html=1;align=center;" parent="1" vertex="1">
          <mxGeometry x="-136" y="850" width="100" height="40" as="geometry" />
        </mxCell>
        <mxCell id="ljGFw6Zh4O7i61NH9_oq-16" value="PROFESSORES" style="shape=ext;margin=3;double=1;whiteSpace=wrap;html=1;align=center;" parent="1" vertex="1">
          <mxGeometry x="160" y="850" width="100" height="40" as="geometry" />
        </mxCell>
        <mxCell id="ljGFw6Zh4O7i61NH9_oq-18" value="SALA" style="shape=ext;margin=3;double=1;whiteSpace=wrap;html=1;align=center;" parent="1" vertex="1">
          <mxGeometry x="-340" y="980" width="100" height="40" as="geometry" />
        </mxCell>
        <mxCell id="ljGFw6Zh4O7i61NH9_oq-22" value="TEM" style="shape=rhombus;double=1;perimeter=rhombusPerimeter;whiteSpace=wrap;html=1;align=center;" parent="1" vertex="1">
          <mxGeometry x="-330" y="840" width="120" height="60" as="geometry" />
        </mxCell>
        <mxCell id="ljGFw6Zh4O7i61NH9_oq-25" value="" style="edgeStyle=entityRelationEdgeStyle;fontSize=12;html=1;endArrow=ERoneToMany;rounded=0;exitX=1;exitY=0.5;exitDx=0;exitDy=0;entryX=0;entryY=0.5;entryDx=0;entryDy=0;" parent="1" source="ljGFw6Zh4O7i61NH9_oq-14" target="ljGFw6Zh4O7i61NH9_oq-22" edge="1">
          <mxGeometry width="100" height="100" relative="1" as="geometry">
            <mxPoint x="-330" y="1000" as="sourcePoint" />
            <mxPoint x="-230" y="900" as="targetPoint" />
          </mxGeometry>
        </mxCell>
        <mxCell id="ljGFw6Zh4O7i61NH9_oq-27" value="MINISTRA" style="shape=rhombus;double=1;perimeter=rhombusPerimeter;whiteSpace=wrap;html=1;align=center;" parent="1" vertex="1">
          <mxGeometry y="840" width="120" height="60" as="geometry" />
        </mxCell>
        <mxCell id="ljGFw6Zh4O7i61NH9_oq-28" value="" style="edgeStyle=entityRelationEdgeStyle;fontSize=12;html=1;endArrow=ERoneToMany;rounded=0;exitX=1;exitY=0.5;exitDx=0;exitDy=0;entryX=0;entryY=0.5;entryDx=0;entryDy=0;" parent="1" source="ljGFw6Zh4O7i61NH9_oq-15" target="ljGFw6Zh4O7i61NH9_oq-27" edge="1">
          <mxGeometry width="100" height="100" relative="1" as="geometry">
            <mxPoint x="-40" y="1000" as="sourcePoint" />
            <mxPoint x="60" y="900" as="targetPoint" />
          </mxGeometry>
        </mxCell>
        <mxCell id="ljGFw6Zh4O7i61NH9_oq-29" value="" style="edgeStyle=entityRelationEdgeStyle;fontSize=12;html=1;endArrow=ERone;endFill=1;rounded=0;exitX=0;exitY=0.5;exitDx=0;exitDy=0;entryX=1;entryY=0.5;entryDx=0;entryDy=0;" parent="1" source="ljGFw6Zh4O7i61NH9_oq-15" target="ljGFw6Zh4O7i61NH9_oq-22" edge="1">
          <mxGeometry width="100" height="100" relative="1" as="geometry">
            <mxPoint x="-270" y="1010" as="sourcePoint" />
            <mxPoint x="-170" y="910" as="targetPoint" />
          </mxGeometry>
        </mxCell>
        <mxCell id="ljGFw6Zh4O7i61NH9_oq-30" value="" style="edgeStyle=entityRelationEdgeStyle;fontSize=12;html=1;endArrow=ERoneToMany;rounded=0;exitX=0;exitY=0.5;exitDx=0;exitDy=0;entryX=1;entryY=0.5;entryDx=0;entryDy=0;" parent="1" source="ljGFw6Zh4O7i61NH9_oq-16" target="ljGFw6Zh4O7i61NH9_oq-27" edge="1">
          <mxGeometry width="100" height="100" relative="1" as="geometry">
            <mxPoint x="150" y="1000" as="sourcePoint" />
            <mxPoint x="250" y="900" as="targetPoint" />
          </mxGeometry>
        </mxCell>
        <mxCell id="ljGFw6Zh4O7i61NH9_oq-31" value="USA" style="shape=rhombus;double=1;perimeter=rhombusPerimeter;whiteSpace=wrap;html=1;align=center;" parent="1" vertex="1">
          <mxGeometry x="-146" y="970" width="120" height="60" as="geometry" />
        </mxCell>
        <mxCell id="ljGFw6Zh4O7i61NH9_oq-35" value="" style="edgeStyle=entityRelationEdgeStyle;fontSize=12;html=1;endArrow=ERmandOne;startArrow=ERmandOne;rounded=0;entryX=0.5;entryY=1;entryDx=0;entryDy=0;" parent="1" source="ljGFw6Zh4O7i61NH9_oq-31" target="ljGFw6Zh4O7i61NH9_oq-15" edge="1">
          <mxGeometry width="100" height="100" relative="1" as="geometry">
            <mxPoint x="-200" y="1050" as="sourcePoint" />
            <mxPoint x="-200" y="940" as="targetPoint" />
            <Array as="points">
              <mxPoint x="-90" y="910" />
              <mxPoint x="-150" y="920" />
              <mxPoint x="-120" y="940" />
            </Array>
          </mxGeometry>
        </mxCell>
        <mxCell id="ljGFw6Zh4O7i61NH9_oq-36" value="" style="edgeStyle=entityRelationEdgeStyle;fontSize=12;html=1;endArrow=ERoneToMany;rounded=0;exitX=1;exitY=0.5;exitDx=0;exitDy=0;entryX=0;entryY=0.5;entryDx=0;entryDy=0;" parent="1" source="ljGFw6Zh4O7i61NH9_oq-18" target="ljGFw6Zh4O7i61NH9_oq-31" edge="1">
          <mxGeometry width="100" height="100" relative="1" as="geometry">
            <mxPoint x="-270" y="1170" as="sourcePoint" />
            <mxPoint x="-170" y="1070" as="targetPoint" />
          </mxGeometry>
        </mxCell>
        <mxCell id="ljGFw6Zh4O7i61NH9_oq-37" value="" style="edgeStyle=entityRelationEdgeStyle;fontSize=12;html=1;endArrow=ERzeroToOne;endFill=1;rounded=0;exitX=1;exitY=0.5;exitDx=0;exitDy=0;entryX=0;entryY=0.5;entryDx=0;entryDy=0;" parent="1" source="dpNasas59TxUKphN5B6h-21" target="dpNasas59TxUKphN5B6h-22" edge="1">
          <mxGeometry width="100" height="100" relative="1" as="geometry">
            <mxPoint x="-310" y="450" as="sourcePoint" />
            <mxPoint x="-210" y="350" as="targetPoint" />
          </mxGeometry>
        </mxCell>
        <mxCell id="ljGFw6Zh4O7i61NH9_oq-38" value="" style="edgeStyle=entityRelationEdgeStyle;fontSize=12;html=1;endArrow=ERzeroToOne;endFill=1;rounded=0;exitX=0;exitY=0.5;exitDx=0;exitDy=0;entryX=1;entryY=0.5;entryDx=0;entryDy=0;" parent="1" source="dpNasas59TxUKphN5B6h-23" target="dpNasas59TxUKphN5B6h-22" edge="1">
          <mxGeometry width="100" height="100" relative="1" as="geometry">
            <mxPoint x="60" y="430" as="sourcePoint" />
            <mxPoint x="160" y="330" as="targetPoint" />
          </mxGeometry>
        </mxCell>
        <mxCell id="ljGFw6Zh4O7i61NH9_oq-39" value="&lt;font style=&quot;font-size: 27px;&quot;&gt;1 -&lt;font&gt;&lt;br&gt;&lt;/font&gt;&lt;/font&gt;" style="text;html=1;align=center;verticalAlign=middle;resizable=0;points=[];autosize=1;strokeColor=none;fillColor=none;" parent="1" vertex="1">
          <mxGeometry x="-490" y="225" width="60" height="50" as="geometry" />
        </mxCell>
        <mxCell id="ljGFw6Zh4O7i61NH9_oq-40" value="&lt;font style=&quot;font-size: 27px;&quot;&gt;2 -&lt;font&gt;&lt;br&gt;&lt;/font&gt;&lt;/font&gt;" style="text;html=1;align=center;verticalAlign=middle;resizable=0;points=[];autosize=1;strokeColor=none;fillColor=none;" parent="1" vertex="1">
          <mxGeometry x="-490" y="345" width="60" height="50" as="geometry" />
        </mxCell>
        <mxCell id="ljGFw6Zh4O7i61NH9_oq-41" value="&lt;font style=&quot;font-size: 27px;&quot;&gt;3 -&lt;font&gt;&lt;br&gt;&lt;/font&gt;&lt;/font&gt;" style="text;html=1;align=center;verticalAlign=middle;resizable=0;points=[];autosize=1;strokeColor=none;fillColor=none;" parent="1" vertex="1">
          <mxGeometry x="-490" y="465" width="60" height="50" as="geometry" />
        </mxCell>
        <mxCell id="ljGFw6Zh4O7i61NH9_oq-42" value="&lt;font style=&quot;font-size: 27px;&quot;&gt;4 -&lt;font&gt;&lt;br&gt;&lt;/font&gt;&lt;/font&gt;" style="text;html=1;align=center;verticalAlign=middle;resizable=0;points=[];autosize=1;strokeColor=none;fillColor=none;" parent="1" vertex="1">
          <mxGeometry x="-490" y="585" width="60" height="50" as="geometry" />
        </mxCell>
        <mxCell id="ljGFw6Zh4O7i61NH9_oq-43" value="&lt;font style=&quot;font-size: 27px;&quot;&gt;5 -&lt;font&gt;&lt;br&gt;&lt;/font&gt;&lt;/font&gt;" style="text;html=1;align=center;verticalAlign=middle;resizable=0;points=[];autosize=1;strokeColor=none;fillColor=none;" parent="1" vertex="1">
          <mxGeometry x="-495" y="707" width="60" height="50" as="geometry" />
        </mxCell>
        <mxCell id="ljGFw6Zh4O7i61NH9_oq-44" value="&lt;font style=&quot;font-size: 27px;&quot;&gt;6 -&lt;font&gt;&lt;br&gt;&lt;/font&gt;&lt;/font&gt;" style="text;html=1;align=center;verticalAlign=middle;resizable=0;points=[];autosize=1;strokeColor=none;fillColor=none;" parent="1" vertex="1">
          <mxGeometry x="-580" y="843" width="60" height="50" as="geometry" />
        </mxCell>
        <mxCell id="ljGFw6Zh4O7i61NH9_oq-46" value="" style="edgeStyle=entityRelationEdgeStyle;fontSize=12;html=1;endArrow=ERmandOne;startArrow=ERmandOne;rounded=0;exitX=0;exitY=0.5;exitDx=0;exitDy=0;entryX=1;entryY=0.5;entryDx=0;entryDy=0;" parent="1" source="ljGFw6Zh4O7i61NH9_oq-4" target="ljGFw6Zh4O7i61NH9_oq-3" edge="1">
          <mxGeometry width="100" height="100" relative="1" as="geometry">
            <mxPoint x="60" y="690" as="sourcePoint" />
            <mxPoint x="160" y="590" as="targetPoint" />
          </mxGeometry>
        </mxCell>
      </root>
    </mxGraphModel>
  </diagram>
</mxfile>
